<!-- Generator: Adobe Illustrator 19.1.0, SVG Export Plug-In  -->
<svg version="1.1"
	 xmlns="http://www.w3.org/2000/svg" xmlns:xlink="http://www.w3.org/1999/xlink" xmlns:a="http://ns.adobe.com/AdobeSVGViewerExtensions/3.0/"
	 x="0px" y="0px" width="15.7px" height="76.1px" viewBox="0 0 15.7 76.1" style="enable-background:new 0 0 15.7 76.1;"
	 xml:space="preserve">
<style type="text/css">
	.st0{fill:#540000;}
</style>
<defs>
</defs>
<g>
	<path class="st0" d="M4.5,8.5c-0.5,0-0.7-0.2-1.5-0.9c-1-1-1.6-1.5-2.9-2.2c0.5-0.2,1.3-0.5,2.7-0.5c2.6,0,3.3,1.3,3.3,2
		C6.1,7.9,5.3,8.5,4.5,8.5z M8.7,12.8c-0.5,0.4-2.8,2.1-3.3,2.4c-0.1,0.1-0.6,0.6-0.7,0.7C4.6,16,4.5,16,4.3,16
		c-0.6,0-1.5-1-1.8-1.4c-0.6-0.7-0.8-1.3-0.8-2.6c0-0.3,0-0.4,0.1-0.8c0.5,0.8,0.8,1.2,1.3,1.2c1,0,7.2-3.2,12-9h0.1
		C14.4,6.8,11.7,10.4,8.7,12.8z M6.1,3.7c-0.5,0-0.6-0.1-1.3-0.9C4.1,1.9,3.2,1.2,1.9,0.4C2.5,0.3,3.3,0,4.6,0c2,0,3,0.9,3,2.1
		C7.6,2.8,7,3.7,6.1,3.7z"/>
	<path class="st0" d="M5.1,25.4c-0.6,0-0.7-0.2-1.4-1.3c-1.4-2.1-2.6-2.8-3.2-3.2c0.4-0.1,1-0.2,2-0.2c2,0,4.4,0.5,4.4,2.7
		C7,24.6,6,25.4,5.1,25.4z M5.7,34c-0.2,0.1-1.1,0.9-1.3,1.1c-0.2,0.1-0.4,0.2-0.5,0.2c-1,0-3.1-1.9-3.1-3.8C0.9,31,1,30.5,1,30
		c0.4,0.6,1.1,1.4,1.7,1.4c1.3,0,9.2-4.5,12.6-9.3l0.1,0C13.9,28.1,9.2,31.6,5.7,34z"/>
	<path class="st0" d="M4.4,48.7c-0.5,0-0.7-0.2-1.5-0.9c-1-1-1.6-1.5-2.9-2.2C0.5,45.3,1.3,45,2.7,45c2.6,0,3.3,1.3,3.3,2
		C5.9,48,5.1,48.7,4.4,48.7z M8.5,52.9C8,53.3,5.7,55,5.3,55.3c-0.1,0.1-0.6,0.6-0.7,0.7c-0.1,0.1-0.2,0.2-0.4,0.2
		c-0.6,0-1.4-1-1.8-1.4c-0.7-0.9-0.8-1.4-0.8-2.6c0-0.3,0-0.4,0.1-0.8c0.5,0.8,0.8,1.2,1.3,1.2c1,0,7.2-3.2,12-9h0.1
		C14.3,46.9,11.5,50.5,8.5,52.9z M6,43.8c-0.5,0-0.6-0.1-1.3-0.9c-0.8-0.8-1.7-1.6-2.9-2.3c0.6-0.2,1.4-0.4,2.7-0.4c2,0,3,0.9,3,2.1
		C7.4,43,6.9,43.8,6,43.8z M13.3,43.4c-0.4,0-0.5-0.1-1.1-0.9c-0.7-0.8-1.1-1.2-1.9-1.8c3.3-0.1,3.9,1.3,3.9,1.8
		C14.1,42.8,13.8,43.4,13.3,43.4z M14.9,41.6c-0.3,0-0.4-0.1-1.2-0.9c-0.7-0.7-1.2-1-1.9-1.5c0.4,0,0.7-0.1,1.2-0.1
		c0.5,0,2.8,0,2.8,1.6C15.7,41.3,15.2,41.6,14.9,41.6z"/>
	<path class="st0" d="M8.6,62.9c-0.1,0.5-0.1,3.8-0.1,4.4c0,0.5,0.1,4.7,0.1,5.1c0.1,1,0.1,1.1,0.1,1.4c0,0.4,0,1.1-0.4,1.7
		c-0.2,0.5-0.6,0.6-1.1,0.6c-1.1,0-2-1.6-2-2.2c0-0.4,0.2-2.2,0.2-2.3c0.1-0.8,0.1-1.9,0.1-3.8c0-1.2,0-5.2-0.1-6
		c-0.1-0.5-0.3-1-1.7-1.2c0.2-0.3,0.7-0.8,2.2-0.8c1.5,0,3.1,1,3.1,1.7C8.9,61.8,8.7,62.6,8.6,62.9z"/>
</g>
</svg>
